<?xml version="1.0" encoding="UTF-8"?>
<svg id="Layer_2" data-name="Layer 2" xmlns="http://www.w3.org/2000/svg" xmlns:xlink="http://www.w3.org/1999/xlink" viewBox="0 0 1520.28 571.75">
  <defs>
    <style>
      .cls-1 {
        fill: none;
      }

      .cls-2 {
        fill: #e3e1e4;
      }

      .cls-3 {
        fill: #02807f;
      }

      .cls-4 {
        clip-path: url(#clippath-1);
      }

      .cls-5 {
        fill: #fff;
      }

      .cls-6 {
        fill: #0746a5;
      }

      .cls-7 {
        clip-path: url(#clippath);
      }
    </style>
    <clipPath id="clippath">
      <polygon class="cls-1" points="287.76 393.4 287.76 393.4 355.58 387.48 359.55 432.91 291.73 438.83 287.76 393.4"/>
    </clipPath>
    <clipPath id="clippath-1">
      <polygon class="cls-1" points="271.03 400.37 271.03 400.37 202.98 398.24 201.56 443.82 269.61 445.95 271.03 400.37"/>
    </clipPath>
  </defs>
  <g id="Layer_1" data-name="Layer 1">
    <g>
      <path class="cls-2" d="M1520.28,111.68c0-5.3-2.11-10.39-5.86-14.14l-19.15-19.15c-3.75-3.75-8.84-5.86-14.14-5.86h-47.76c-1.05,0-2.07.08-3.08.24-1-.15-2.03-.24-3.08-.24h-7.92c-5.3,0-10.39,2.11-14.14,5.86l-17.35,17.35-17.35-17.35c-3.75-3.75-8.84-5.86-14.14-5.86h-20.99c-5.76,0-10.93,2.45-14.58,6.34l-.52-.51c-3.75-3.73-8.82-5.83-14.11-5.83h-46.91c-5.3,0-10.39,2.11-14.14,5.86l-10.58,10.58-10.58-10.58c-3.75-3.75-8.84-5.86-14.14-5.86h-32.84c-1.05,0-2.07.1-3.08.26-1.01-.16-2.03-.26-3.08-.26h-7.92c-5.3,0-10.39,2.11-14.14,5.86l-10.43,10.43-10.35-10.35c-3.75-3.75-8.84-5.86-14.14-5.86h-47.76c-1.05,0-2.07.1-3.08.26-1.01-.16-2.03-.26-3.08-.26h-27.07c-6.9,0-12.99,3.5-16.58,8.81l-3.03-3.03c-3.75-3.75-8.84-5.86-14.14-5.86h-80.98c-7.12,0-13.36,3.73-16.9,9.34l-3.48-3.48c-3.75-3.75-8.84-5.86-14.14-5.86h-47.76c-1.05,0-2.07.08-3.08.24-1-.15-2.03-.24-3.08-.24h-7.92c-5.3,0-10.39,2.11-14.14,5.86l-10.43,10.43-10.35-10.35c-3.75-3.75-8.84-5.86-14.14-5.86h-61.83c-5.32,0-10.42,2.12-14.17,5.89l-11.45,11.5-11.6-11.6c-3.75-3.75-8.84-5.86-14.14-5.86h-47.76c-1.05,0-2.07.08-3.08.24-1-.15-2.03-.24-3.08-.24h-7.92c-5.3,0-10.39,2.11-14.14,5.86l-19.15,19.15c-3.75,3.75-5.86,8.84-5.86,14.14v88.29c0,.28.03.55.04.83-.31.56-.59,1.13-.84,1.72-.19-.51-.4-1.01-.62-1.51l-11.69-27.12c-1.97-4.57-5.51-8.11-9.79-10.14.18-27.02-17-55.93-27.36-73.33-1.34-2.25-2.49-4.19-3.46-5.87-1.39-2.42-3.04-5.26-4.85-8.37-6.96-11.97-21.45-36.88-24.05-44.74-3.52-10.62-4.9-16.14-4.92-16.2-2.12-8.66-9.71-14.85-18.62-15.21-.27-.01-.54-.02-.81-.02-8.58,0-16.25,5.51-18.97,13.71l-.37,1.1c-2.91,8.74-4.72,14.57-6.35,26.35-3.49-3.88-7.9-7.03-13.06-9.08l-50.18-19.92c-4.11-1.63-8.42-2.46-12.83-2.46h0c-12.68,0-24.21,6.81-30.32,17.84l-20.53,32.93c-5.93-.46-11.87-.69-17.79-.69-8.25,0-16.54.45-24.77,1.34l-21.45-32.34c-6.25-10.49-17.61-16.97-29.86-16.97-4.75,0-9.37.96-13.74,2.84l-49.58,21.4c-2.04.88-3.96,1.94-5.74,3.14-1.56-10.48-3.32-16.14-6.06-24.38l-.36-1.1C126.83,5.51,119.16.02,110.58.02c-.27,0-.54,0-.81.02-8.91.36-16.5,6.57-18.62,15.22,0,.02-1.39,5.55-4.91,16.16-2.6,7.85-17.09,32.76-24.05,44.74-1.81,3.11-3.46,5.95-4.85,8.37-.96,1.68-2.12,3.62-3.46,5.87-10.56,17.76-28.24,47.47-27.34,74.95.01.36.03.72.05,1.09-5.2,1.92-9.52,5.97-11.66,11.37l-12.46,31.37c-6.46,16.28.14,34.66,15.37,43.13l6.28,3.92c-2.68,3.3-4.91,6.88-6.07,10.58-3.43,10.93.51,18.62,3.17,22.23,4.39,5.97,11.59,9.54,19.26,9.54.41,0,.71,0,.87-.02h.04c2.2,0,5.57,1.23,9.42,3.06-.22,1.42-.29,2.88-.19,4.35.21,3.15.48,6.3.82,9.44l-32.34,21.45c-14.98,8.91-21.05,27.48-14.1,43.59l21.38,49.59s.01.03.02.05c5.52,12.7,18.02,20.91,31.86,20.91,3.21,0,6.41-.45,9.5-1.33l37.83-8.79c9.23,10.79,19.42,20.69,30.47,29.58l-7.66,38.12c-4.27,16.89,4.57,34.3,20.85,40.76l50.25,19.95c4.1,1.63,8.41,2.45,12.81,2.45,12.65,0,24.17-6.79,30.3-17.77l16.02-25.61c.33-.53.63-1.08.91-1.63.91.01,1.82.03,2.75.03,4.84,0,10.03-.17,16.83-.56,4.99-.28,9.64-.42,14.64-.42,3.3,0,6.4.06,9.69.11,1.94.03,3.93.07,6,.09.2.34.4.67.62,1l17.1,25.69c6.24,10.46,17.58,16.93,29.81,16.93,4.75,0,9.38-.96,13.76-2.85l49.64-21.42c16.08-6.94,24.41-24.59,19.64-41.33l-8.73-37.91c10.75-9.19,20.62-19.36,29.51-30.39l38.13,7.66c2.77.69,5.61,1.04,8.46,1.04,14.32,0,27-8.6,32.28-21.92l19.95-50.25c6.45-16.23-.13-34.6-15.31-43.1l-33.03-20.64c.1-1.35.2-2.7.28-4.05.06-.99.04-1.96-.04-2.93,3.75-1.77,7.03-2.95,9.18-2.95h.05c.16,0,.46.02.87.02,7.67,0,14.88-3.57,19.26-9.54,2.65-3.61,6.59-11.31,3.17-22.23-1.8-5.73-6.14-11.18-10.8-15.73l9.74-6.49c5.72-3.41,10.14-8.22,13.03-13.77v43.98c0,11.05,8.95,20,20,20h63.11l-18.95,20.53c-3.41,3.69-5.3,8.54-5.3,13.57v18.46c0,5.05,1.91,9.91,5.34,13.61l23.17,24.95v79.87c0,11.05,8.95,20,20,20h64.33c11.05,0,20-8.95,20-20v-114.23c0-4.98-1.85-9.76-5.18-13.43,3.33-3.67,5.18-8.46,5.18-13.43v-29.89h66.45c5.78,0,10.97-2.46,14.62-6.38,3.65,3.92,8.84,6.38,14.62,6.38h11.07v125.3c0,5.32,2.12,10.42,5.89,14.17l45.69,45.51c3.75,3.73,8.82,5.83,14.11,5.83h49.89c11.05,0,20-8.95,20-20v-22.59l36.92,37.07c3.75,3.77,8.85,5.89,14.17,5.89h21.75c2.58,0,5.04-.51,7.31-1.4,2.27.89,4.73,1.4,7.31,1.4h110.57c5.3,0,10.39-2.11,14.14-5.86l36.95-36.95v22.8c0,11.05,8.95,20,20,20h192.45c5.3,0,10.39-2.11,14.14-5.86l45.51-45.51c3.75-3.75,5.86-8.84,5.86-14.14v-18.83c0-2.62-.52-5.11-1.43-7.4.91-2.29,1.43-4.78,1.43-7.4v-42.04c0-5.3-2.11-10.39-5.86-14.14l-35.67-35.67h21.53c11.05,0,20-8.95,20-20v-64.26c1.98-3.11,3.15-6.79,3.15-10.74v-88.29ZM1124.49,146.29s-.01.05-.02.07h-18.62c-1.5,0-2.97.17-4.38.48v-1.03c1.41.31,2.87.48,4.38.48h18.64ZM1190.76,190.13c.3.28.6.56.91.84-.3-.05-.6-.09-.91-.14v-.71ZM1224.84,219.11c1.85.56,3.78.85,5.75.85h7.77c5.06,0,9.93-1.92,13.63-5.36l8.92-8.31s.06-.05.08-.08c5.74-5.4,11.58-10.84,17.28-16.15v9.89c0,2.61.51,5.09,1.42,7.38l-33.31,33.31-21.54-21.54ZM764.72,146.36c-5.41,0-10.31,2.15-13.92,5.64v-.56c0-4.25-1.35-8.36-3.82-11.76h2.88c3.66,4.06,8.96,6.61,14.86,6.61h17.83v.07h-17.83ZM970.05,381.44h-11.25v-125.48c0-5.3-2.11-10.39-5.86-14.14l-21.86-21.86h14.05c1.05,0,2.07-.08,3.08-.24,1,.16,2.03.24,3.08.24h47.76c1.81,0,3.6-.26,5.32-.74l-22.9,22.99c-3.73,3.75-5.83,8.82-5.83,14.11v90.1c0,4.94,1.82,9.68,5.1,13.34-3.28,3.66-5.1,8.41-5.1,13.34v9.13c-1.77-.51-3.64-.81-5.58-.81ZM1233.59,365.91h-64.33c-9.58,0-17.58,6.73-19.54,15.72h-38.24c-2.39-.04-4.79-.06-7.18-.09,2.81-3.53,4.36-7.91,4.36-12.44v-18.64c0-5.07-1.93-9.95-5.39-13.66l-23.31-24.94v-16.89h69.75c1.96,8.99,9.96,15.72,19.54,15.72h64.33c1.94,0,3.81-.29,5.58-.8v8.22c0,5.3,2.11,10.39,5.86,14.14l45.51,45.51c1.61,1.62,3.49,2.9,5.51,3.87h-36.88c-2.05,0-4.03.31-5.89.88-1.62-9.42-9.81-16.6-19.69-16.6ZM130.88,115.3c-.38.32-.75.65-1.12.98.22-.95.45-1.91.68-2.87l.44,1.89ZM430.33,107.96c.68,2.76,1.35,5.54,2,8.31-2.11-1.83-4.24-3.62-6.41-5.37l2.34-11.54c.67,2.88,1.37,5.75,2.07,8.6Z"/>
      <g>
        <g>
          <path class="cls-6" d="M622.91,141.89l5.61,5.61,5.61-5.61h17.38v-19l-3.31-3.31h-36.53v-27.07h47.76l19.15,19.15v88.29h-27.07v-30.99h-6.15l-12.92,12.07h-7.84l-12.92-12.07h-6.15v30.99h-27.07v-88.29l19.15-19.15h7.92v49.37h17.38Z"/>
          <path class="cls-6" d="M719.95,200.03h-9.15l-19.15-19.23v-19.84l5.61-5.61-5.61-5.61v-37.91l19.15-19.23h61.83l19.15,19.15v14.53h-27.07v-3.31l-3.31-3.31h-39.38l-3.31,3.31v15.54l12.07,12.92v7.84l-10.84,11.61v29.15ZM726.11,172.89c4.77,0,9.46,0,14.23.08h21.07l3.31-3.31v-3.31h27.07v14.53l-19.15,19.15h-46.53v-27.15Z"/>
          <path class="cls-6" d="M846.99,141.89l5.61,5.61,5.61-5.61h17.38v-19l-3.31-3.31h-36.53v-27.07h47.76l19.15,19.15v88.29h-27.07v-30.99h-6.15l-12.92,12.07h-7.84l-12.92-12.07h-6.15v30.99h-27.07v-88.29l19.15-19.15h7.92v49.37h17.38Z"/>
          <path class="cls-6" d="M945.12,129.36l12.07,13v7.77l-12.07,12.92v36.91h-27.07v-48.07l5.61-5.69-5.61-5.61v-48.07h80.98l19.15,19.15v69.06l-19.15,19.23h-47.76v-27.15h36.53l3.31-3.23v-46.68l-3.31-3.31h-39.38l-3.31,3.31v6.46Z"/>
          <path class="cls-6" d="M1059.85,92.6v36.84l3.08,3.31h18.53v27.07h-18.53l-3.08,3.31v6.54l3.31,3.31h39.38l3.31-3.31v-3.31h27.07v14.53l-19.15,19.15h-80.98v-48.07l5.61-5.69-5.61-5.61v-48.07h27.07ZM1113.76,92.6l19.15,19.15v14.53h-27.07v-3.31l-3.31-3.31h-36.53v-27.07h47.76Z"/>
          <path class="cls-6" d="M1170.75,129.36l12.07,13v7.77l-12.07,12.92v36.91h-27.07v-48.07l5.61-5.69-5.61-5.61v-28.92l19.15-19.15h7.92v36.84ZM1176.9,92.52h32.84l19.15,19.15v49.22l5.54,5.54,5.61-5.61v-49.14l19.15-19.15h46.91l19.23,19.15v28.92l-5.69,5.61,5.69,5.69v48.07h-27.07v-36.91l-12.07-12.92v-7.77l12.07-13v-6.46l-3.31-3.31h-24.53l-3.31,3.31v50.22c-6.61,6.15-13.23,12.3-19.84,18.53l-8.92,8.31h-7.77c-4.69-4.31-9.3-8.69-13.92-13-4.92-4.61-9.84-9.23-14.84-13.84v-50.22l-3.31-3.31h-21.61v-27.07Z"/>
          <path class="cls-6" d="M1375.45,169.58l3.31,3.31h9.84v26.99h-21l-19.23-19.15v-57.83l-3.31-3.31h-9.77v-27.07h20.99l19.15,19.15v57.91Z"/>
          <path class="cls-6" d="M1444.59,141.89l5.61,5.61,5.61-5.61h17.38v-19l-3.31-3.31h-36.53v-27.07h47.76l19.15,19.15v88.29h-27.07v-30.99h-6.15l-12.92,12.07h-7.84l-12.92-12.07h-6.15v30.99h-27.07v-88.29l19.15-19.15h7.92v49.37h17.38Z"/>
        </g>
        <g>
          <path class="cls-6" d="M576.01,210.45h238.14v64.33h-238.14v-64.33ZM727.7,324.67l-13.34,13.34,13.34,13.52v114.23h-64.33v-87.73l-28.51-30.7v-18.46l28.51-30.89v-8.59h64.33v35.27Z"/>
          <path class="cls-6" d="M938.78,393.58l7.86,7.86h23.39v64.15h-49.89l-45.69-45.51v-137.44l-7.86-7.86h-23.21v-64.33h49.89l45.51,45.51v137.62Z"/>
          <path class="cls-6" d="M1062.88,465.95h-21.75l-45.51-45.69v-47.15l13.34-13.34-13.34-13.34v-90.1l45.51-45.69h146.94l45.51,45.51v34.54h-64.33v-7.86l-7.86-7.86h-93.58l-7.86,7.86v36.92l28.69,30.7v18.64l-25.77,27.6v69.27ZM1077.5,401.43c11.33,0,22.48,0,33.81.18h50.08l7.86-7.86v-7.86h64.33v34.54l-45.51,45.51h-110.57v-64.52Z"/>
          <path class="cls-6" d="M1304.67,363.6l-45.51-45.51v-61.96l45.51-45.51h192.45v64.33h-165.77l-7.86,7.86v8.59l7.86,7.86h24.12l13.34,13.34,13.34-13.34h69.45l45.51,45.51v42.04h-64.33v-15.35l-7.86-7.86h-16.08l-30.89,28.69h-18.46l-30.7-28.69h-24.13ZM1497.12,401.62v18.83l-45.51,45.51h-192.45v-64.33h237.96Z"/>
        </g>
        <g>
          <g>
            <path class="cls-6" d="M209.14,491.98c-10.93-2.95-18.12-7.73-25.01-12.81-14.6-10.74-20.62-29.17-15.35-46.95.71-2.38.97-3.44,1.07-3.91-.03-.27-.07-.67-.11-1.01-.28-2.53-.75-6.78-.75-15.2,0-2.25.11-4.41.32-6.5-5.17-4.38-13.6-9.38-23.52-13.85-7.59-3.42-13.25-10.31-15.14-18.42l-9.92-42.55c-.43-1.85-.59-3.73-.48-5.59-5.64-.55-11.19-1.76-16.59-3.62-11.36-3.92-22.32-10.47-32.91-16.82-.06-.04-.12-.07-.18-.11.46,6.89,1.25,13.73,2.37,20.5l-43.28,28.71c-6.57,3.69-9.29,11.74-6.3,18.67l21.39,49.6c3,6.91,10.72,10.45,17.92,8.2l50.62-11.75c12.54,16.47,27.6,31.2,44.86,43.56l-10.24,50.98c-2.03,7.24,1.74,14.88,8.74,17.65l50.25,19.95c6.99,2.78,14.97-.17,18.46-6.83l16.34-26.12c-2.85-.33-5.76-.74-8.78-1.23-13.08-2.15-19.71-14.18-23.75-24.54Z"/>
            <path class="cls-6" d="M33.5,185.17l-12.46,31.37c-2.78,7,.19,14.98,6.85,18.47l14.05,8.76c4.04-2.86,9.36-6.19,15.93-9.35-13.84-15.86-20.96-33.28-24.37-49.24Z"/>
            <path class="cls-6" d="M534.19,346.39l-44.12-27.57c.7-5.2,1.21-10.39,1.52-15.58-.85.51-1.69,1.01-2.53,1.51-10.59,6.34-21.55,12.9-32.91,16.82-5.4,1.86-10.95,3.07-16.59,3.62.1,1.86-.05,3.74-.48,5.59l-9.92,42.55c-1.89,8.12-7.55,15-15.14,18.42-10.21,4.6-18.78,9.72-23.93,14.21-.11,1.88-.11,3.35-.06,4.25.15,2.47,1.12,6.38,2.06,10.15,2.13,8.57,4.34,17.43,1.83,25.75-1.4,4.64-3.88,9.07-6.48,12.84,1.85,12.09-2.04,22.72-11.07,29.39-9.99,7.38-22.96,8.48-29.79,8.48-.78,0-1.66-.01-2.61-.05-.28.52-.61,1.14-.97,1.86-.22.45-.44.89-.65,1.33-2.24,4.64-5.89,12.2-15.65,15.94l17.43,26.18c3.69,6.57,11.74,9.29,18.67,6.3l49.64-21.42c6.9-2.98,10.46-10.69,8.21-17.88l-11.67-50.69c16.42-12.51,31.13-27.55,43.47-44.77l50.95,10.23c7.27,2.01,14.88-1.74,17.66-8.76l19.95-50.25c2.78-6.99-.18-14.94-6.83-18.46Z"/>
            <path class="cls-6" d="M512.99,240.51l19.41-12.93c6.57-3.69,9.29-11.74,6.29-18.65l-11.71-27.15c-3.11,16.86-10.23,35.64-25.05,52.63,4.19,2.02,7.88,4.11,11.06,6.1Z"/>
            <path class="cls-6" d="M140.72,168.56c3.79,2.05,7.81,3.34,11.46,4.13,4-4.11,8.19-7.69,12.16-10.37,10.58-7.15,23.85-10.49,41.75-10.49,6.98,0,14.99.48,25.19,1.5,8.4.84,16.3,2.11,23.94,3.33,9.18,1.47,17.85,2.86,24.61,2.95.2,0,.41,0,.61,0,6.36,0,13.91-1.25,22.65-2.7,7.42-1.23,15.84-2.63,25.42-3.58,10.21-1.02,18.22-1.5,25.2-1.5,17.9,0,31.17,3.33,41.75,10.49,3.97,2.68,8.16,6.27,12.16,10.37,3.65-.8,7.67-2.08,11.46-4.13,8.97-4.86,15.8-12.38,19.2-18.38-10.2-11.44-21.72-21.85-34.48-30.95l10.3-50.87c2.04-7.26-1.73-14.9-8.75-17.68l-50.18-19.92c-7.02-2.79-14.99.16-18.47,6.85l-27.48,44.08c-21.1-2.85-42.19-2.44-62.65.95l-28.71-43.28c-3.69-6.57-11.75-9.32-18.68-6.33l-49.58,21.4c-6.93,2.99-10.48,10.74-8.21,17.94l11.75,50.62c-11.11,8.45-21.41,18.07-30.75,28.73,3.63,5.71,10.06,12.41,18.29,16.86Z"/>
          </g>
          <g>
            <path class="cls-5" d="M394.97,292.99s-10.98,42.73-25.19,43.5c-14.21.77-42.95-6.33-42.95-6.33,0,0,23.16-7.88,33.04-17.76,9.88-9.88,35.1-19.41,35.1-19.41Z"/>
            <path class="cls-5" d="M235.84,331.12s-32.49,10.69-45.93,4.25c-13.43-6.44-24.31-44-24.31-44,0,0,26.13,8.45,34.74,12.74,8.61,4.28,24.75,24.34,35.51,27.02Z"/>
            <g>
              <g>
                <g>
                  <path class="cls-6" d="M371.55,402.09s15.38-14.81,34.94-24.59l13.37-50.04-8.2-37.96-9.92-2.16-11.22,14.67s-4.07,30.04-20.71,34.51c-16.64,4.47-35.37-2.59-35.37-2.59l-100.51-5.61s-5.65,10.35-16.39,11.22c-10.74.86-25.17-3.02-31.49-8.2-6.32-5.18-18.98-41.41-18.98-41.41l-13.8-3.02s-.28,7.32-1.73,20.27c-1.45,12.96-7.33,21.57-7.33,21.57l9.06,44.86s25.15,14.24,30.63,18.98c5.48,4.75,187.65,9.49,187.65,9.49Z"/>
                  <path class="cls-6" d="M418.76,223.41s39.2-3.46,46.56-31.58l8.14,4.56,5.86-10.42s13.51.52,10.09-22.79c-3.41-23.32-21.16-53.85-28.33-76.84-7.16-22.99-9.12-50.79-9.12-50.79,0,0,27.4,52.48,38.74,70.98,11.34,18.5,21.08,57.53,17.58,76.19-3.49,18.65-32.94,59.3-41.02,62.84l-44.93-5.53s-7.09,1.38-3.58-16.6Z"/>
                  <path class="cls-6" d="M110.1,37.48s3,27.89-2.27,39.64c-5.27,11.76-20.82,28.75-25.48,49.55-4.66,20.8-10.86,40.97-9.06,50.12,1.8,9.15,9.06,10.19,9.06,10.19l6.8,7.08,9.63-3.11s-1.43,14.16,16.42,22.94c17.85,8.78,30.58,10.19,30.58,10.19l-1.98,12.18s-3.69,4.25-22.65,5.95c-18.96,1.7-30.02-1.98-30.02-1.98,0,0-35.13-21.35-36.53-57.2-1.4-35.85,6.62-57.5,15.01-71.64,8.39-14.14,35.59-61.92,40.49-73.91Z"/>
                  <path class="cls-2" d="M340.1,479.96s29.16-.33,29.67-8.34c.51-8.01-2.33-13.77-2.33-13.77,0,0,5.35.79,5.82-12.99.46-13.79-2.72-33.75-2.72-33.75,0,0,2.33-12.61,1.75-18.04-.58-5.43-1.26-12.12-5.43-16.29-4.17-4.17-5.82-6.21-14.55-5.24-8.73.97-13.77,1.55-13.77,1.55l5.04-17.26s-7.18-20.95-10.67-23.27c-3.49-2.33-6.98-7.95-6.98-7.95,0,0,5.33-.6,11.72-3.89,15.17-7.81,41.07-23.18,49.95-26.94,12.63-5.35,20.36-4.65,19.2-16.48-1.16-11.83,13.41,11.3,13.41,11.3l70.78-10.72,32.6-2.14s-16.89-21.94-52.33-28.74c-35.44-6.8-53.19-11.15-53.19-11.15l-1.29-11.58s31.28-2.32,45.04-22.3l5.76-8.84,15.78-8.18s8.72-11.55,3.78-32.08c-6-24.91-32.36-62.98-35.36-88.85-3-25.87,7.47,56.66,7.47,77.47s-13.48,43.54-57.48,55.33c0,0-5.35-13.35-33.03-19.3-27.68-5.95-71.52,6.15-87.08,4.72-15.55-1.43-75.79-16.69-96.61-4.56-20.82,12.12-27,17.12-27,17.12,0,0-1.47,4.53-17.73-5.14-18.56-11.03-27.71-8.09-33.53-23.36-5.82-15.27,5.76-74.88,6.82-90.54,1.07-15.66-10.46,10.92-10.46,10.92,0,0-17.15,26.19-20.47,39.13-3.32,12.94-16.51,38.98-5,61.87l13.19,6.82,22.29,18.2,34.58,10.01-1.82,15.47s-19.6,2.52-41.57,6.18c-21.96,3.66-56.4,19.21-61.78,29.13l11.27,5.4,97.95,10.1,37.11,8.22s26.36,23.72,47.45,28.89c0,0-4.78.76-10.57,19.03-5.79,18.26-4.46,29.6-4.46,29.6v7.99s-24.58,7.97-28.19,17.85c-3.61,9.88-2.35,32.25-2.35,43.22s9.49,28.89,19.73,30.77c10.24,1.88,16.44,5.4,16.44,5.4,0,0,.91,19.57,12.68,21.61,11.77,2.04,78.92,1.41,78.92,1.41l10.1-12.21,11.4-10.78Z"/>
                </g>
                <g id="_Mirror_Repeat_" data-name="&amp;lt;Mirror Repeat&amp;gt;">
                  <g class="cls-7">
                    <path d="M291.82,438.83s5.08-6.3,18.65-6.01c13.57.29,30.88,5.03,40.22-5.36,9.34-10.39,9.25-26.38-1.58-33.74-10.83-7.36-29.96-3.74-36.93,1.86-6.97,5.6-23.81,21.62-20.37,43.25Z"/>
                  </g>
                </g>
                <g id="_Mirror_Repeat_-2" data-name="&amp;lt;Mirror Repeat&amp;gt;">
                  <g class="cls-4">
                    <path d="M269.51,445.95s-5.43-6.01-18.96-4.96c-13.53,1.05-30.55,6.75-40.46-3.11-9.91-9.86-10.71-25.82-.3-33.77,10.41-7.95,29.7-5.41,36.97-.2,7.27,5.21,24.98,20.25,22.75,42.04Z"/>
                  </g>
                </g>
                <g>
                  <path d="M383.81,206.41s0-.09,0-.14c0,0,0,.05,0,.14Z"/>
                  <path d="M178.26,206.41c0-.08,0-.14,0-.14,0,.04,0,.09,0,.14Z"/>
                </g>
              </g>
              <path d="M524.95,272.78c-1.63-5.2-19.57-23.16-49.61-30.25,33.18-24.25,39.54-57.38,40.21-77.85.81-24.66-19.71-55.49-28.15-70.2-8.45-14.72-26.65-45.04-30.54-56.77-3.89-11.73-5.35-17.7-5.35-17.7-3.76,11.32-5.48,15.85-7.76,41.1-2.28,25.25,13.65,56.78,12.67,85.4-.44,13.02-14.14,29.22-29.24,37.4-8.61,4.66-17.76,6.33-24.04,6.9-.32-.39-.64-.77-.96-1.15-4.74-5.56-9.67-9.96-13.77-12.73-13.13-8.88-31.42-9.14-57.3-6.55-21.18,2.12-36.66,6.53-50.33,6.35-13.67-.18-31.17-4.49-49.81-6.35-25.88-2.59-44.17-2.32-57.3,6.55-4.11,2.78-9.04,7.18-13.77,12.73-.32.38-.64.76-.96,1.15-6.28-.57-15.42-2.23-24.04-6.9-15.1-8.17-28.79-24.37-29.24-37.4-.97-28.61,14.96-60.14,12.67-85.4-2.28-25.25-4-29.79-7.76-41.1,0,0-1.46,5.97-5.35,17.7s-22.09,42.05-30.54,56.77c-8.45,14.72-28.96,45.54-28.15,70.2.67,20.48,7.03,53.61,40.21,77.85-30.04,7.08-47.98,25.05-49.61,30.25-1.89,6.03,3.42,5.79,3.42,5.79,19.11-.71,45.05,23.41,69.01,31.67,15.82,5.45,29.67,2.72,37.26.23-.02.03-.03.06-.04.08-4.09,6.85-7.94,12.5-9.88,15.28-.84,1.2-1.12,2.69-.79,4.12l9.92,42.55c.87,3.73,3.42,6.84,6.91,8.42,8.8,3.97,25.81,12.54,33.21,22.5-.9,3.24-1.4,6.91-1.4,11.18,0,18.78,2.45,13.28-.82,24.28-3.27,11-.36,23.4,10,31.02,7.02,5.17,14,9.95,27.36,11.95,2.72,8,7.15,21.44,15.11,22.75,15.38,2.52,26.38,2.5,41.58,1.64,15.2-.87,24.08-.21,36.35-.21s13.75-5.47,16.73-11.43c2.98-5.96,6.41-11.35,10.41-10.41,4,.94,18.67,1.31,27.35-5.1,7.75-5.73,5.79-15.56,3.89-20.99,2.3-2.67,6.72-8.29,8.36-13.7,2.25-7.45-3.92-21.24-4.49-30.81-.15-2.6-.03-6.77.58-11.67,7.91-9.31,23.64-17.22,31.99-20.99,3.49-1.57,6.04-4.68,6.91-8.42l9.92-42.55c.33-1.42.05-2.92-.79-4.12-1.95-2.78-5.8-8.43-9.88-15.28-.02-.03-.03-.06-.04-.08,7.59,2.49,21.45,5.22,37.26-.23,23.96-8.26,49.9-32.38,69.01-31.67,0,0,5.31.24,3.42-5.79ZM497.12,132.09c8.47,21.4,10.2,42.44,5.39,56.54-9.59,28.06-29.22,45.03-38.58,51.84-1.26-.16-2.53-.3-3.82-.41-18.78-1.68-31.43-2.76-40.24-4.08.24-2.87.19-5.72-.09-8.53,36.51-1.27,47.79-29.68,47.79-29.68l3.06,6.96,9.16-11.98c.85,2.13,2.78,7.88,2.78,7.88,0,0,6.33-7.91,8.29-16.33,8.8-37.87-21.19-86.09-27.26-100.07-6.44-14.85-10.08-36.62-10.08-36.62,2.64,11.65,29.48,48.83,43.59,84.49ZM460.96,163.65c8.9-17.96-5.46-80.39-5.46-80.39,6.96,16.33,21.94,46.35,25.97,64.43,5.24,23.51.66,35.63.66,35.63-1.03-5.47-3.46-8.23-3.46-8.23l-7.54,14.68c-1.22-6.49-4.42-7.88-4.42-7.88,0,0-10.78,34.3-48.64,36.57-2-7.25-5.39-14.07-9.36-20.1,28.9-7.3,44.96-20.03,52.24-34.71ZM101.1,163.65c7.28,14.69,23.35,27.42,52.24,34.71-3.97,6.03-7.35,12.86-9.36,20.1-44.96,0-47.82-39.89-47.82-39.89,0,0-3.88,4.02-5.23,11.2l-6.91-14.73s-2.89,1.87-4.1,8.28c0,0-5.73-18.27-.52-36.04,5.21-17.77,22.23-44.36,27.15-64.02,0,0-14.36,62.43-5.46,80.39ZM59.57,188.63c-4.82-14.1-3.08-35.14,5.39-56.54,14.11-35.66,40.95-72.84,43.59-84.49,0,0-3.64,21.77-10.08,36.62-6.17,14.24-36.49,61.76-26.6,99.87,2.55,8.66,8.79,12.8,8.79,12.8,0,0-.16-1.76.32-2.77.47-1.01,1.3-1.37,1.3-1.37,0,0,.04.07.11.18l.05.09c.12.19.3.48.54.86l.47.74c.05.08.11.17.16.25l1.12,1.77c.39.62.83,1.32,1.32,2.09l.88,1.39c1.11,1.76,2.41,3.81,3.9,6.17l.54-1.24c.22-.51.43-1.01.64-1.49l1-2.32c.19-.43.36-.83.52-1.2l.26-.6c.21-.48.38-.87.5-1.15l.12-.28c.06-.14.1-.23.1-.23,0,0,11.28,28.41,47.79,29.68-.28,2.81-.32,5.66-.09,8.53-8.81,1.32-21.46,2.4-40.24,4.08-1.29.12-2.56.25-3.82.41-9.36-6.81-28.99-23.79-38.58-51.84ZM192.32,391.63c-2.45-15.15-18.11-25.76-18.11-25.76,8.76,13.63,9.88,18.36,11.85,24.72-2.75-3.42-9.45-10.59-20.33-14.94-5.76-2.31-9.85-7.53-10.99-13.63l-4.83-25.86c-.83-4.42-.18-9,1.91-12.98,3.32-6.33,7.52-17.51,4.45-29.78,0,0,2.38.11,6.41.9,6.77,26.3,19.69,37.46,19.69,37.46-8.1-2.62-18.06-9.62-18.06-9.62,3.73,13.93,22.94,19.51,22.94,19.51-12.39,1.44-15.82-.13-15.82-.13,7.58,11.76,37.91,2.59,49.9-1.61-3.96,6.31-7.68,14.81-6.45,23.25.05,2.56.58,7.36,3.33,11.94-.58.45-1.12.88-1.61,1.29-3.6.5-7.11,1.56-10.02,3.51-5.56,3.7-10.48,7.26-14.25,11.72ZM172.1,296.76c4.85,1.55,10.53,3.84,16.63,7.14.03,6.43,1.16,20.2,9.98,24.31,8.61,4.02,20.42.94,25.99-.94,3.13,1.87,4.46,2.52,4.46,2.52,0,0-.11.12-.3.32-6.03,1.63-24.29,5.74-35.95-.32-10.91-5.67-18.1-24.68-20.8-33.04ZM330.24,474.38c-20.57,1.38-29.18,10.82-29.18,10.82,7.5-4.56,33.26-5.1,33.26-5.1,0,0-5.86,5.04-10.82,11.22-4.95,6.19-8.12,5.51-20.82,4.9-12.7-.61-34.27,2.32-56.94,1.22-11.56-.56-14.86-9.2-15.78-14.76,4.49.22,9.56.19,15.37-.14,30.82-1.77,59.61-10.71,71.22-13.67,11.6-2.96,31.6-10,47.91-4.91.41,11.4-15.47,9.16-34.24,10.42ZM365.16,451.46c-2.27,3.12-16.26-4-33.47,3.1-17.22,7.1-31.26,9.88-49.4,13.69-18.14,3.81-60.9,4.82-70,1.22-9.1-3.59-18.43-12.92-16.73-25.1,1.7-12.18,1.24-20.44-.19-28.58-1.43-8.14,5.36-23.52,24.68-27.13,19.32-3.61,37.17-4.06,47.69-4.47,0,0-23-4.29-30.96-6.34-.12-.03-.27-.06-.4-.1,5.98-4.21,19.98-11.13,47.33-11.13s39.25,4.48,43.87,7.18c-8.08,2.82-16.49,6.42-24.53,10.39,0,0,17.29-2.73,32.09-6.34,14.79-3.61,24.6-.47,28.16,6.13,3.56,6.59-2.78,19.39.83,35.68,1.91,8.62,9.66,19.92,1.04,31.8ZM412.17,336.17l-4.83,25.86c-1.14,6.1-5.23,11.32-10.99,13.63-6.83,2.73-12,6.57-15.6,9.9,3.05-9.27,8.05-18.24,16.02-23.01,0,0-17.3,9.22-22.04,20.82,0,0-1.94-13.9-15.71-15.31-4.11-.42-8.98-.01-14.3,1-.06-.04-.13-.08-.2-.12l1.05-.13c4.52-10.17.02-21.17-4.82-28.89,11.99,4.2,42.33,13.36,49.9,1.61,0,0-3.43,1.57-15.82.13,0,0,19.21-5.58,22.94-19.51,0,0-9.96,7-18.06,9.62,0,0,12.92-11.16,19.69-37.46,4.03-.79,6.41-.9,6.41-.9-3.08,12.28,1.13,23.45,4.45,29.78,2.09,3.98,2.74,8.56,1.91,12.98ZM333.21,330.11c-.19-.2-.3-.32-.3-.32,0,0,1.33-.65,4.46-2.52,5.56,1.88,17.38,4.96,25.99.94,8.81-4.12,9.94-17.88,9.98-24.31,6.09-3.3,11.78-5.59,16.63-7.14-2.71,8.35-9.89,27.36-20.8,33.04-11.66,6.06-29.92,1.94-35.95.32ZM417.21,278.8c-.56-7.47-5.81-15.11-13.07-20.22,2.81-11.97-5.23-20.12-12.87-32.91-7.38-12.35-7.49-18.35-7.46-19.25-.93,12.04,5.25,26.97,8.88,35.99,2.04,5.06,2.02,8.93,1.61,11.35-3.11-.94-6.34-1.39-9.57-1.2-16.13.93-23.38,14.86-23.38,14.86,11.59-11.59,23.97-10.06,29.11-7.43,5.14,2.63,10.16,9.84,9.29,19.05-.87,9.21-25.39,15.95-25.39,15.95,2.74-4.38,15.02-13.01,15.02-13.01-12.86-1.77-49.77,36.23-51.1,36.85-1.33.62-11.66,6.73-16.58-2.37-5.83-10.78.17-26.27.17-26.27-14.74,14.74-10.93,26.75-5.63,33.92-3.86.93-9.71,1.12-14.72-3.9-10.14-10.14-9.62-28.67-4.58-36.04,0,0-18.46,17.16-2.15,38.47-4.97-1.14-12.19-5.88-10.07-24.25,0,0-11.11,33.21,17.21,31.79.09.08.17.16.27.24,0,0,10.13,6.36,21.66,1.05,14.9,9.89,14.45,25.33,12.98,33.36-7.25-3.45-17.57-7.23-30.47-9.11-.85-3.09-2.8-7.35-7.26-11.81,0,0,2.31,6.19,1.78,11.15-5.89-.57-12.23-.73-19.03-.27-7.41.49-14.11,1.39-20.18,2.54-1.84-5.07,1.28-13.42,1.28-13.42-6.19,6.19-7.56,12-7.84,14.8-12.56,2.99-21.95,7.1-28.69,10.95-1.07-3.22-7.55-25.38,11.77-38.2,11.53,5.31,21.66-1.05,21.66-1.05.09-.08.18-.16.27-.24,28.33,1.42,17.21-31.79,17.21-31.79,2.12,18.37-5.1,23.11-10.07,24.25,16.31-21.31-2.15-38.47-2.15-38.47,5.04,7.37,5.56,25.9-4.58,36.04-5.01,5.01-10.87,4.83-14.72,3.9,5.29-7.17,9.11-19.17-5.63-33.92,0,0,5.99,15.5.17,26.27-4.92,9.1-15.25,2.99-16.58,2.37-1.33-.62-38.24-38.62-51.1-36.85,0,0,12.28,8.63,15.02,13.01,0,0-24.52-6.74-25.39-15.95-.87-9.21,4.15-16.41,9.29-19.05,5.14-2.63,17.52-4.16,29.11,7.43,0,0-7.26-13.93-23.38-14.86-3.22-.19-6.45.26-9.57,1.2-.41-2.43-.43-6.29,1.61-11.35,3.64-9.02,9.82-23.95,8.88-35.99.03.9-.08,6.9-7.46,19.25-7.64,12.79-15.68,20.95-12.86,32.92-7.26,5.1-12.51,12.74-13.08,20.21-29.45-34.57-98.77-6.14-98.77-6.14,0,0,13.52-12.26,34.96-18.54,14.41-4.22,25.75-6.38,25.75-6.38,7.84-1.19,14.54-2.48,20.27-3.79,28.97-6.67,33.11-14.16,33.11-14.16-2.7,2.44-6.46,4.02-12.71,5.28.09-3.66,1.27-13.8,10.37-27.32,11.51-17.11,24.65-26.37,38.43-28.12,13.78-1.75,26.29-1.57,47.62,2.28,21.33,3.85,31.83,6.28,37.83,6.32,6,.05,15.12-2.47,36.46-6.32,21.33-3.85,33.84-4.04,47.62-2.28,13.78,1.75,26.93,11.01,38.43,28.12,9.09,13.52,10.27,23.66,10.37,27.32-6.26-1.27-10.01-2.85-12.71-5.28,0,0,4.14,7.49,33.11,14.16,5.73,1.32,12.44,2.61,20.27,3.79,0,0,11.34,2.15,25.75,6.38,21.44,6.28,34.96,18.54,34.96,18.54,0,0-69.31-28.43-98.77,6.14Z"/>
              <path class="cls-3" d="M348.09,321.39s11.72-8.26,15.8-11.81c4.07-3.54.27,20.15-15.8,11.81Z"/>
              <path class="cls-3" d="M197.85,310.66s11.56,8.49,16.22,11.22c4.65,2.74-19.02,6.66-16.22-11.22Z"/>
            </g>
          </g>
        </g>
      </g>
    </g>
  </g>
</svg>